# xmcd CD database file
# Copyright (C) 1993-1998 Ti Kan
#
# Track frame offsets:
#	150
#	15725
#	37972
#	64422
#	78955
#	95435
#	121915
#	139522
#	157347
#	173835
#	214730
#	227532
#	245550
#	264550
#	285660
#	304855
#
# Disc length: 4331 seconds
#
# Revision: 1
# Processed by: cddbd v1.4b41PL1 Copyright (c) Steve Scherf et al.
# Submitted via: CDValet v3.31 - Copyright (c) 1997 Greg Leichner
#
DISCID=db10e910
DTITLE=Albert King - The Great King Albert
DYEAR=1900
DGENRE=
TTITLE0=Born Under A Bad Sign
TTITLE1=The Feeling
TTITLE2=Angel Of Mercy
TTITLE3=We All Wanna Boogie
TTITLE4=Get Out Of My Life Woman
TTITLE5=Boot Lace
TTITLE6=I Get Evil
TTITLE7=Love Mechanic
TTITLE8=Chump Chance
TTITLE9=I Got The Blues
TTITLE10=Flat Tire
TTITLE11=Love Shock
TTITLE12=You Upset Me Baby
TTITLE13=Let Me Rock You Easy
TTITLE14=The Very Thought Of Your
TTITLE15=Call My Job
EXTD=
EXTT0=
EXTT1=
EXTT2=
EXTT3=
EXTT4=
EXTT5=
EXTT6=
EXTT7=
EXTT8=
EXTT9=
EXTT10=
EXTT11=
EXTT12=
EXTT13=
EXTT14=
EXTT15=
PLAYORDER=
